<svg width="24" height="24" viewBox="0 0 24 24" fill="none" xmlns="http://www.w3.org/2000/svg">
<path d="M7.78105 2.06783C7.99561 2.20028 8.0446 2.29451 8.17993 2.53125C8.17993 2.85267 8.17993 3.1741 8.17993 3.50527C10.7008 3.50527 13.2217 3.50527 15.819 3.50527C15.819 3.18384 15.819 2.86241 15.819 2.53125C16.1203 2.07949 16.1203 2.07949 16.3256 2.02476C16.6397 1.98202 16.8881 1.99329 17.1493 2.18075C17.4001 2.44882 17.3982 2.68123 17.3877 3.0353C17.387 3.08053 17.3863 3.12575 17.3856 3.17235C17.3837 3.28336 17.3812 3.39429 17.378 3.50527C17.4083 3.50492 17.4387 3.50457 17.4699 3.50422C17.7588 3.50107 18.0477 3.49871 18.3366 3.49719C18.485 3.49638 18.6335 3.49529 18.7819 3.49351C18.9257 3.49179 19.0695 3.49088 19.2133 3.49048C19.2676 3.4902 19.3219 3.48964 19.3762 3.48879C20.129 3.47744 20.8007 3.6764 21.3534 4.20656C21.844 4.75881 21.9891 5.32181 21.9874 6.04204C21.9875 6.10221 21.9877 6.16238 21.9879 6.22256C21.9884 6.38745 21.9884 6.55235 21.9883 6.71725C21.9883 6.89527 21.9887 7.0733 21.9891 7.25132C21.9897 7.59995 21.99 7.94858 21.99 8.29721C21.99 8.58067 21.9902 8.86414 21.9904 9.1476C21.9911 9.95169 21.9915 10.7558 21.9914 11.5599C21.9914 11.6249 21.9914 11.6249 21.9914 11.6912C21.9914 11.7346 21.9914 11.7779 21.9914 11.8226C21.9914 12.5256 21.9921 13.2285 21.9932 13.9314C21.9943 14.6536 21.9949 15.3758 21.9948 16.0979C21.9948 16.5032 21.995 16.9085 21.9958 17.3138C21.9966 17.6589 21.9967 18.004 21.9962 18.3491C21.9959 18.525 21.9959 18.701 21.9966 18.8769C21.9972 19.0383 21.9971 19.1996 21.9964 19.3609C21.9963 19.419 21.9965 19.4771 21.9969 19.5352C22.0017 20.2201 21.8039 20.7988 21.3277 21.2994C20.9041 21.7121 20.3779 21.982 19.7783 21.9827C19.7508 21.9828 19.7234 21.9829 19.6951 21.9831C19.6036 21.9834 19.5121 21.9833 19.4206 21.9831C19.3541 21.9832 19.2876 21.9834 19.2212 21.9836C19.0389 21.9841 18.8566 21.9841 18.6743 21.984C18.4776 21.984 18.2808 21.9844 18.0841 21.9848C17.6988 21.9854 17.3134 21.9856 16.9281 21.9857C16.6148 21.9857 16.3015 21.9859 15.9883 21.9861C15.0998 21.9868 14.2113 21.9872 13.3228 21.9871C13.2749 21.9871 13.227 21.9871 13.1777 21.9871C13.1297 21.9871 13.0818 21.9871 13.0324 21.9871C12.2555 21.987 11.4786 21.9878 10.7017 21.9889C9.90368 21.99 9.10568 21.9905 8.30767 21.9905C7.85976 21.9905 7.41186 21.9907 6.96396 21.9915C6.58258 21.9922 6.2012 21.9924 5.81982 21.9919C5.62534 21.9916 5.43086 21.9916 5.23638 21.9923C5.05811 21.9929 4.87985 21.9928 4.70157 21.9921C4.63732 21.992 4.57306 21.9921 4.5088 21.9926C3.80541 21.997 3.21359 21.8161 2.69546 21.3236C2.17175 20.7866 2.00991 20.206 2.01124 19.4739C2.01107 19.4136 2.01086 19.3533 2.01062 19.293C2.01007 19.1279 2.01001 18.9627 2.01002 18.7975C2.00996 18.6191 2.00945 18.4408 2.009 18.2624C2.00811 17.8727 2.0078 17.4829 2.00761 17.0931C2.00748 16.8496 2.00723 16.606 2.00694 16.3625C2.00618 15.6877 2.00554 15.013 2.00543 14.3382C2.00542 14.295 2.00541 14.2519 2.00541 14.2074C2.00539 14.1199 2.00538 14.0324 2.00536 13.9449C2.00536 13.9015 2.00535 13.8581 2.00534 13.8133C2.00534 13.7699 2.00533 13.7264 2.00532 13.6816C2.00518 12.9773 2.00413 12.2731 2.00267 11.5688C2.00119 10.8451 2.00043 10.1214 2.00042 9.39778C2.0004 8.99171 2.00007 8.58565 1.99894 8.17958C1.99798 7.83376 1.9977 7.48794 1.99829 7.14212C1.99857 6.96584 1.99854 6.78958 1.99765 6.6133C1.99684 6.45157 1.99695 6.28986 1.99776 6.12813C1.9979 6.06997 1.99771 6.01182 1.99715 5.95367C1.99183 5.36357 2.13873 4.88193 2.48962 4.40136C2.53183 4.3411 2.53183 4.3411 2.57488 4.27961C2.99275 3.80711 3.60875 3.53922 4.23037 3.49514C4.38408 3.49186 4.53752 3.49206 4.69124 3.49385C4.74731 3.49407 4.80339 3.49424 4.85946 3.49435C5.00523 3.49479 5.15098 3.49594 5.29674 3.49724C5.44621 3.49845 5.59568 3.49897 5.74515 3.49956C6.03709 3.5008 6.32901 3.50279 6.62094 3.50527C6.61911 3.46376 6.61911 3.46376 6.61723 3.42142C6.61233 3.29435 6.60932 3.1673 6.60633 3.04017C6.60437 2.99665 6.60241 2.95314 6.60039 2.9083C6.59499 2.60167 6.64701 2.41016 6.85479 2.1806C7.10707 1.96519 7.47511 1.94558 7.78105 2.06783ZM3.78066 5.36077C3.74826 5.39648 3.74826 5.39648 3.7152 5.43291C3.26574 6.21735 3.58092 7.23759 3.58092 8.14159C9.13715 8.14159 14.6934 8.14159 20.418 8.14159C20.6304 6.63067 20.6304 6.63067 20.2182 5.36077C20.1972 5.33636 20.1762 5.31195 20.1546 5.28681C19.8677 5.06596 19.5507 5.0871 19.2049 5.09124C19.152 5.09146 19.0992 5.09163 19.0463 5.09174C18.9082 5.09219 18.7701 5.09333 18.6319 5.09463C18.4906 5.09583 18.3492 5.09636 18.2078 5.09695C17.9312 5.0982 17.6546 5.10019 17.378 5.10266C17.3774 5.13212 17.3768 5.16158 17.3762 5.19193C17.3733 5.32615 17.3696 5.46034 17.3658 5.59453C17.3649 5.64089 17.364 5.68725 17.3631 5.73501C17.3538 6.0382 17.3379 6.23868 17.11 6.45654C16.8796 6.62234 16.6843 6.65634 16.4036 6.62212C16.1725 6.55153 16.0339 6.4276 15.8969 6.23252C15.7775 5.87437 15.8335 5.47989 15.819 5.10266C13.2981 5.10266 10.7772 5.10266 8.17993 5.10266C8.16707 5.43694 8.15421 5.77122 8.14096 6.11563C8.02165 6.35415 7.9288 6.46337 7.70249 6.59534C7.44003 6.66093 7.19953 6.65095 6.96228 6.51605C6.81613 6.40988 6.71762 6.28869 6.65992 6.11563C6.65408 6.03808 6.65024 5.96036 6.64759 5.88263C6.64595 5.8373 6.64432 5.79198 6.64264 5.74528C6.6411 5.69794 6.63957 5.65061 6.63799 5.60184C6.63631 5.55405 6.63463 5.50627 6.63289 5.45703C6.62876 5.33891 6.62478 5.22079 6.62094 5.10266C6.31635 5.09994 6.01176 5.09787 5.70715 5.0966C5.56569 5.09599 5.42423 5.09517 5.28277 5.09384C5.14605 5.09256 5.00934 5.09187 4.87262 5.09157C4.79551 5.09125 4.7184 5.09034 4.64129 5.08941C4.31581 5.08935 4.00846 5.09601 3.78066 5.36077ZM3.58092 9.73898C3.57931 11.3654 3.5777 12.9918 3.57604 14.6675C3.57533 15.1813 3.57462 15.6951 3.57389 16.2245C3.57363 16.6845 3.57363 16.6845 3.57348 17.1445C3.5734 17.3497 3.57312 17.5548 3.57269 17.7599C3.57214 18.0215 3.57199 18.283 3.5721 18.5446C3.57208 18.6407 3.57192 18.7367 3.57162 18.8327C3.57124 18.9624 3.57133 19.0921 3.57154 19.2218C3.57131 19.2594 3.57109 19.297 3.57085 19.3357C3.57225 19.6506 3.60396 19.9309 3.81476 20.1805C4.07185 20.3836 4.302 20.419 4.62692 20.4192C4.65289 20.4193 4.67886 20.4194 4.70562 20.4194C4.79256 20.4196 4.8795 20.4195 4.96645 20.4194C5.02945 20.4195 5.09245 20.4196 5.15544 20.4197C5.32851 20.4199 5.50157 20.4199 5.67464 20.4199C5.8613 20.4199 6.04797 20.4201 6.23464 20.4203C6.60032 20.4206 6.96601 20.4207 7.33169 20.4207C7.6289 20.4207 7.92611 20.4208 8.22331 20.4209C9.0658 20.4213 9.90829 20.4215 10.7508 20.4214C10.8189 20.4214 10.8189 20.4214 10.8884 20.4214C10.9339 20.4214 10.9794 20.4214 11.0262 20.4214C11.7635 20.4214 12.5007 20.4218 13.2379 20.4223C13.9947 20.4229 14.7515 20.4232 15.5084 20.4231C15.9333 20.4231 16.3583 20.4232 16.7832 20.4236C17.145 20.424 17.5068 20.4241 17.8686 20.4238C18.0531 20.4237 18.2377 20.4237 18.4223 20.424C18.5913 20.4243 18.7603 20.4243 18.9293 20.4239C18.9905 20.4239 19.0516 20.424 19.1127 20.4242C19.686 20.4351 19.686 20.4351 20.1841 20.1805C20.4193 19.8831 20.4238 19.5977 20.4227 19.2312C20.4227 19.1907 20.4227 19.1502 20.4228 19.1084C20.4228 18.9723 20.4226 18.8362 20.4224 18.7C20.4224 18.6009 20.4224 18.5018 20.4224 18.4027C20.4224 18.1641 20.4223 17.9255 20.422 17.6868C20.4217 17.4108 20.4217 17.1347 20.4217 16.8586C20.4215 16.1299 20.4209 15.4011 20.4204 14.6724C20.4192 12.2303 20.4192 12.2303 20.418 9.73898C14.8618 9.73898 9.30552 9.73898 3.58092 9.73898Z" fill="white"/>
<path d="M16.0318 11.9973C16.0685 11.997 16.1051 11.9968 16.1429 11.9965C16.2201 11.9962 16.2973 11.9963 16.3745 11.9967C16.4918 11.9971 16.6089 11.9957 16.7261 11.9942C16.8015 11.9941 16.8769 11.9942 16.9523 11.9943C16.9869 11.9938 17.0215 11.9932 17.0571 11.9927C17.3306 11.9963 17.5999 12.0644 17.8082 12.3051C17.8323 12.3528 17.8323 12.3528 17.8569 12.4015C17.8738 12.4335 17.8907 12.4654 17.9082 12.4983C18.0123 12.7376 18.005 12.9889 17.9847 13.255C17.9198 13.5376 17.7993 13.708 17.6128 13.8735C17.4839 13.9508 17.3817 13.9809 17.2397 13.9825C17.2035 13.9831 17.1672 13.9837 17.1299 13.9843C17.0911 13.9844 17.0523 13.9845 17.0123 13.9847C16.9519 13.9851 16.9519 13.9851 16.8902 13.9856C16.805 13.9861 16.7198 13.9863 16.6346 13.9863C16.5048 13.9865 16.3751 13.9882 16.2453 13.99C16.1624 13.9903 16.0794 13.9905 15.9965 13.9906C15.9579 13.9913 15.9194 13.992 15.8796 13.9927C15.6205 13.9906 15.4082 13.943 15.213 13.7112C15.0309 13.4487 14.9921 13.205 14.9975 12.8643C15.0204 12.6054 15.1012 12.4256 15.2417 12.2409C15.5035 12.0354 15.731 11.9961 16.0318 11.9973Z" fill="white"/>
<path d="M11.3767 11.9973C11.4256 11.997 11.4745 11.9968 11.5249 11.9965C11.6278 11.9962 11.7308 11.9963 11.8337 11.9967C11.99 11.9971 12.1462 11.9957 12.3025 11.9942C12.403 11.9941 12.5036 11.9942 12.6041 11.9943C12.6502 11.9938 12.6963 11.9932 12.7438 11.9927C13.1084 11.9963 13.4675 12.0644 13.7453 12.3051C13.7774 12.3528 13.7774 12.3528 13.8102 12.4015C13.8328 12.4335 13.8553 12.4654 13.8786 12.4983C14.0173 12.7376 14.0076 12.9889 13.9807 13.255C13.894 13.5376 13.7333 13.708 13.4847 13.8735C13.3129 13.9508 13.1766 13.9809 12.9873 13.9825C12.939 13.9831 12.8906 13.9837 12.8408 13.9843C12.7891 13.9844 12.7374 13.9845 12.6841 13.9847C12.6035 13.9851 12.6035 13.9851 12.5212 13.9856C12.4077 13.9861 12.2941 13.9863 12.1805 13.9863C12.0074 13.9865 11.8344 13.9882 11.6614 13.99C11.5508 13.9903 11.4402 13.9905 11.3296 13.9906C11.2782 13.9913 11.2268 13.992 11.1738 13.9927C10.8283 13.9906 10.5453 13.943 10.2851 13.7112C10.0422 13.4487 9.99046 13.205 9.99764 12.8643C10.0282 12.6054 10.136 12.4256 10.3233 12.2409C10.6723 12.0354 10.9757 11.9961 11.3767 11.9973Z" fill="white"/>
<path d="M7.03179 11.9973C7.06846 11.997 7.10513 11.9968 7.14291 11.9965C7.22012 11.9962 7.29733 11.9963 7.37454 11.9967C7.49176 11.9971 7.60891 11.9957 7.72612 11.9942C7.80152 11.9941 7.87693 11.9942 7.95233 11.9943C7.9869 11.9938 8.02147 11.9932 8.05709 11.9927C8.33055 11.9963 8.59987 12.0644 8.80822 12.3051C8.83231 12.3528 8.83231 12.3528 8.85689 12.4015C8.87382 12.4335 8.89074 12.4654 8.90818 12.4983C9.01225 12.7376 9.00495 12.9889 8.98475 13.255C8.91975 13.5376 8.79925 13.708 8.61281 13.8735C8.48394 13.9508 8.38167 13.9809 8.23974 13.9825C8.20348 13.9831 8.16722 13.9837 8.12986 13.9843C8.09108 13.9844 8.05229 13.9845 8.01233 13.9847C7.95187 13.9851 7.95187 13.9851 7.89019 13.9856C7.805 13.9861 7.7198 13.9863 7.63461 13.9863C7.50482 13.9865 7.37507 13.9882 7.24529 13.99C7.16235 13.9903 7.07942 13.9905 6.99648 13.9906C6.95792 13.9913 6.91936 13.992 6.87963 13.9927C6.62051 13.9906 6.4082 13.943 6.21304 13.7112C6.03089 13.4487 5.9921 13.205 5.99748 12.8643C6.02044 12.6054 6.10123 12.4256 6.24171 12.2409C6.5035 12.0354 6.73103 11.9961 7.03179 11.9973Z" fill="white"/>
<path d="M15.7165 16.0027C15.7545 16.0022 15.7925 16.0018 15.8316 16.0013C15.8932 16.001 15.8932 16.001 15.956 16.0007C15.9983 16.0004 16.0405 16.0001 16.084 15.9998C16.1735 15.9993 16.263 15.999 16.3524 15.9988C16.4891 15.9984 16.6258 15.9968 16.7624 15.9953C16.8493 15.995 16.9363 15.9947 17.0232 15.9945C17.064 15.9939 17.1048 15.9933 17.1469 15.9927C17.3901 15.9936 17.5673 16.015 17.7554 16.2389C17.9341 16.5252 18.0037 16.7367 17.9965 17.1126C17.9657 17.4495 17.8325 17.6608 17.6385 17.8702C17.5202 17.9748 17.4155 17.9813 17.2775 17.9826C17.2395 17.9831 17.2015 17.9836 17.1624 17.9841C17.1008 17.9844 17.1008 17.9844 17.038 17.9847C16.9958 17.985 16.9535 17.9853 16.91 17.9855C16.8205 17.986 16.7311 17.9863 16.6416 17.9865C16.5049 17.987 16.3683 17.9885 16.2316 17.9901C16.1447 17.9904 16.0577 17.9906 15.9708 17.9908C15.93 17.9914 15.8892 17.9921 15.8472 17.9927C15.6039 17.9917 15.4267 17.9704 15.2386 17.7465C15.0599 17.4601 14.9903 17.2487 14.9975 16.8728C15.0283 16.5358 15.1615 16.3245 15.3556 16.1152C15.4738 16.0105 15.5785 16.0041 15.7165 16.0027Z" fill="white"/>
<path d="M10.9563 16.0027C11.007 16.0022 11.0577 16.0018 11.1099 16.0013C11.1919 16.001 11.1919 16.001 11.2757 16.0007C11.332 16.0004 11.3883 16.0001 11.4464 15.9998C11.5657 15.9993 11.6849 15.999 11.8042 15.9988C11.9865 15.9984 12.1687 15.9968 12.3509 15.9953C12.4668 15.995 12.5827 15.9947 12.6986 15.9945C12.753 15.9939 12.8074 15.9933 12.8635 15.9927C13.1878 15.9936 13.4241 16.015 13.6749 16.2389C13.9131 16.5252 14.0059 16.7367 13.9963 17.1126C13.9553 17.4495 13.7777 17.6608 13.5189 17.8702C13.3613 17.9748 13.2216 17.9813 13.0377 17.9826C12.987 17.9831 12.9364 17.9836 12.8842 17.9841C12.8021 17.9844 12.8021 17.9844 12.7183 17.9847C12.662 17.985 12.6057 17.9853 12.5476 17.9855C12.4284 17.986 12.3091 17.9863 12.1898 17.9865C12.0075 17.987 11.8253 17.9885 11.6431 17.9901C11.5272 17.9904 11.4113 17.9906 11.2954 17.9908C11.241 17.9914 11.1866 17.9921 11.1305 17.9927C10.8062 17.9917 10.57 17.9704 10.3191 17.7465C10.0809 17.4601 9.98809 17.2487 9.99768 16.8728C10.0387 16.5358 10.2163 16.3245 10.4751 16.1152C10.6327 16.0105 10.7724 16.0041 10.9563 16.0027Z" fill="white"/>
<path d="M6.7165 16.0027C6.7545 16.0022 6.7925 16.0018 6.83165 16.0013C6.89321 16.001 6.89321 16.001 6.956 16.0007C6.99825 16.0004 7.0405 16.0001 7.08403 15.9998C7.1735 15.9993 7.26296 15.999 7.35243 15.9988C7.4891 15.9984 7.62576 15.9968 7.76243 15.9953C7.84935 15.995 7.93627 15.9947 8.02319 15.9945C8.064 15.9939 8.10481 15.9933 8.14686 15.9927C8.3901 15.9936 8.56729 16.015 8.75543 16.2389C8.93408 16.5252 9.0037 16.7367 8.99651 17.1126C8.96572 17.4495 8.83251 17.6608 8.63845 17.8702C8.52022 17.9748 8.41548 17.9813 8.27752 17.9826C8.23952 17.9831 8.20152 17.9836 8.16237 17.9841C8.10081 17.9844 8.10081 17.9844 8.03801 17.9847C7.99576 17.985 7.95352 17.9853 7.90999 17.9855C7.82052 17.986 7.73105 17.9863 7.64159 17.9865C7.50491 17.987 7.36826 17.9885 7.23159 17.9901C7.14467 17.9904 7.05775 17.9906 6.97083 17.9908C6.93002 17.9914 6.8892 17.9921 6.84716 17.9927C6.60391 17.9917 6.42673 17.9704 6.23859 17.7465C6.05994 17.4601 5.99032 17.2487 5.99751 16.8728C6.0283 16.5358 6.16151 16.3245 6.35557 16.1152C6.47379 16.0105 6.57854 16.0041 6.7165 16.0027Z" fill="white"/>
</svg>
