<svg width="24" height="24" viewBox="0 0 24 24" fill="none" xmlns="http://www.w3.org/2000/svg">
<path d="M2.00549 9C8.59643 9 15.1874 9 21.9781 9C21.9816 10.8688 21.9851 12.7377 21.9887 14.6631C21.9902 15.2532 21.9918 15.8432 21.9934 16.4511C21.9941 17.1718 21.9941 17.1718 21.9943 17.5091C21.9944 17.7447 21.9951 17.9803 21.996 18.2159C21.9971 18.4878 21.9976 18.7597 21.9973 19.0317C21.9972 19.1707 21.9975 19.3096 21.9983 19.4487C21.9992 19.5979 21.999 19.747 21.9985 19.8963C21.999 19.9391 21.9995 19.982 22 20.0262C21.9961 20.4917 21.8454 20.8762 21.5531 21.2446C21.5058 21.3077 21.5058 21.3077 21.4575 21.3721C21.1334 21.6976 20.6722 21.9648 20.1934 21.9845C20.1432 21.9846 20.0929 21.9847 20.0411 21.9847C19.9989 21.9849 19.9989 21.9849 19.9558 21.985C19.861 21.9853 19.7662 21.9853 19.6714 21.9853C19.6029 21.9854 19.5344 21.9856 19.4659 21.9857C19.2773 21.9861 19.0888 21.9863 18.9002 21.9864C18.6969 21.9866 18.4937 21.9869 18.2905 21.9873C17.7994 21.9881 17.3084 21.9885 16.8174 21.9889C16.5861 21.9891 16.3549 21.9893 16.1236 21.9895C15.3549 21.9902 14.5862 21.9908 13.8174 21.9911C13.6179 21.9912 13.4184 21.9912 13.2189 21.9913C13.1693 21.9913 13.1197 21.9914 13.0686 21.9914C12.2655 21.9917 11.4623 21.9927 10.6592 21.9941C9.8346 21.9954 9.01 21.9962 8.18539 21.9963C7.72243 21.9964 7.25946 21.9967 6.79649 21.9978C6.40217 21.9987 6.00785 21.999 5.61353 21.9986C5.41241 21.9984 5.21131 21.9985 5.0102 21.9993C4.82586 22 4.64153 22 4.45719 21.9993C4.39073 21.9992 4.32427 21.9994 4.2578 21.9999C3.68455 22.0038 3.23149 21.9086 2.77039 21.5711C2.70466 21.5257 2.70466 21.5257 2.6376 21.4793C2.3097 21.178 2.02548 20.741 2.00021 20.2942C2.00022 20.2596 2.00024 20.2251 2.00026 20.1895C2.00017 20.1495 2.00009 20.1095 2 20.0683C2.00012 20.0245 2.00025 19.9807 2.00038 19.9355C2.00034 19.889 2.0003 19.8425 2.00026 19.7945C2.00021 19.6651 2.00034 19.5357 2.00055 19.4063C2.00074 19.2647 2.00068 19.1231 2.00065 18.9815C2.00062 18.7065 2.00082 18.4316 2.00109 18.1566C2.0014 17.8386 2.00143 17.5206 2.00147 17.2027C2.00169 16.3629 2.00228 15.5232 2.00283 14.6835C2.00371 12.808 2.00458 10.9324 2.00549 9ZM5.36258 11.4489C5.36258 12.2571 5.36258 13.0652 5.36258 13.8978C6.20398 13.8978 7.04537 13.8978 7.91227 13.8978C7.91227 13.0897 7.91227 12.2815 7.91227 11.4489C7.07087 11.4489 6.22947 11.4489 5.36258 11.4489ZM10.7169 11.4489C10.7169 12.2571 10.7169 13.0652 10.7169 13.8978C11.5583 13.8978 12.3997 13.8978 13.2666 13.8978C13.2666 13.0897 13.2666 12.2815 13.2666 11.4489C12.4252 11.4489 11.5838 11.4489 10.7169 11.4489ZM16.0713 11.4489C16.0713 12.2571 16.0713 13.0652 16.0713 13.8978C16.9127 13.8978 17.7541 13.8978 18.621 13.8978C18.621 13.0897 18.621 12.2815 18.621 11.4489C17.7796 11.4489 16.9382 11.4489 16.0713 11.4489ZM5.36258 16.6325C5.36258 17.4406 5.36258 18.2487 5.36258 19.0814C6.20398 19.0814 7.04537 19.0814 7.91227 19.0814C7.91227 18.2732 7.91227 17.4651 7.91227 16.6325C7.07087 16.6325 6.22947 16.6325 5.36258 16.6325ZM10.7169 16.6325C10.7169 17.4406 10.7169 18.2487 10.7169 19.0814C11.5583 19.0814 12.3997 19.0814 13.2666 19.0814C13.2666 18.2732 13.2666 17.4651 13.2666 16.6325C12.4252 16.6325 11.5838 16.6325 10.7169 16.6325ZM16.0713 16.6325C16.0713 17.4406 16.0713 18.2487 16.0713 19.0814C16.9127 19.0814 17.7541 19.0814 18.621 19.0814C18.621 18.2732 18.621 17.4651 18.621 16.6325C17.7796 16.6325 16.9382 16.6325 16.0713 16.6325Z" fill="#212121"/>
<path d="M7.59173 1.99741C7.63581 1.99724 7.63581 1.99724 7.68077 1.99707C7.74263 1.99712 7.8045 1.99773 7.86636 1.99889C7.96069 2.00048 8.05485 1.99984 8.14919 1.99895C8.20951 1.99926 8.26983 1.99971 8.33014 2.0003C8.38465 2.0008 8.43916 2.00131 8.49532 2.00183C8.66343 2.03034 8.73386 2.08244 8.8534 2.21165C9.13223 2.81896 8.8959 3.56912 8.8959 4.24812C10.9435 4.24812 12.991 4.24812 15.1007 4.24812C15.1007 3.60663 15.1007 2.96514 15.1007 2.30422C15.2707 2.0728 15.2707 2.0728 15.3557 2.02652C15.5474 2.01346 15.7393 2.012 15.9314 2.01031C15.9954 2.00955 16.0593 2.00828 16.1232 2.00652C16.2156 2.00397 16.3079 2.00297 16.4003 2.00229C16.4557 2.00137 16.511 2.00046 16.568 1.99951C16.7156 2.02652 16.7156 2.02652 16.8403 2.11512C16.9645 2.31715 16.955 2.478 16.9488 2.71589C16.9485 2.75973 16.9482 2.80358 16.9479 2.84875C16.9467 2.98837 16.9441 3.1279 16.9414 3.26749C16.9403 3.36231 16.9393 3.45714 16.9385 3.55197C16.9361 3.78405 16.9325 4.01607 16.9281 4.24812C16.9871 4.24766 16.9871 4.24766 17.0473 4.24718C17.4199 4.24439 17.7924 4.24228 18.165 4.24092C18.3565 4.2402 18.548 4.23923 18.7395 4.23764C18.9247 4.23612 19.1099 4.2353 19.2951 4.23494C19.3653 4.23469 19.4356 4.23419 19.5059 4.23344C20.2475 4.22579 20.8651 4.35019 21.422 4.92429C22.1944 5.81503 21.9854 6.7399 21.9854 7.99707C15.3939 7.99707 8.80241 7.99707 2.01117 7.99707C2.01117 5.56069 2.01117 5.56069 2.59552 4.88451C3.03912 4.42902 3.56185 4.23944 4.16404 4.24286C4.19558 4.24286 4.22712 4.24285 4.25961 4.24284C4.36309 4.24288 4.46656 4.24323 4.57004 4.2436C4.64209 4.24368 4.71414 4.24375 4.78619 4.2438C4.97524 4.24397 5.1643 4.24443 5.35335 4.24494C5.5465 4.24541 5.73965 4.24563 5.9328 4.24586C6.31136 4.24635 6.68992 4.24714 7.06847 4.24812C7.06736 4.18904 7.06625 4.12996 7.0651 4.0691C7.06125 3.84958 7.05881 3.63007 7.0568 3.41053C7.05573 3.31558 7.05428 3.22063 7.05244 3.12569C7.04986 2.98908 7.04866 2.85252 7.04772 2.71589C7.04663 2.67355 7.04553 2.63121 7.0444 2.58759C7.04432 2.38625 7.05113 2.28598 7.15659 2.11542C7.31228 2.00413 7.40622 1.99729 7.59173 1.99741Z" fill="#212121"/>
</svg>
