<svg width="20" height="20" viewBox="0 0 20 20" fill="none" xmlns="http://www.w3.org/2000/svg">
<g clip-path="url(#clip0_8045_876)">
<path d="M9.9621 19.9998C8.28541 20.0106 6.63357 19.5944 5.16213 18.7905C5.13265 18.7782 5.10104 18.7719 5.0691 18.7719C5.03717 18.7719 5.00556 18.7782 4.97608 18.7905L1.69238 19.7207C1.49141 19.7847 1.27675 19.7923 1.07174 19.7428C0.866737 19.6932 0.679236 19.5885 0.529626 19.4398C0.380016 19.2912 0.274025 19.1043 0.223177 18.8996C0.17233 18.695 0.178573 18.4803 0.241227 18.2789L1.22727 14.9766C1.24868 14.9196 1.24868 14.8568 1.22727 14.7998C0.218811 12.9567 -0.183501 10.8427 0.077432 8.75801C0.338365 6.67328 1.24929 4.7237 2.68091 3.18596C4.11253 1.64823 5.99211 0.600468 8.05289 0.191391C10.1137 -0.217686 12.251 0.0327042 14.1614 0.907023C16.0718 1.78134 17.6583 3.23517 18.6958 5.06216C19.7332 6.88915 20.1688 8.99649 19.9408 11.0851C19.7129 13.1737 18.8328 15.1374 17.4257 16.6975C16.0185 18.2577 14.1557 19.335 12.1016 19.7765C11.3978 19.9228 10.681 19.9976 9.9621 19.9998ZM5.0412 17.33C5.31737 17.3338 5.58857 17.404 5.83189 17.5347C7.03571 18.1949 8.38002 18.5574 9.75255 18.592C11.1251 18.6266 12.486 18.3323 13.7215 17.7336C14.9571 17.1349 16.0314 16.2493 16.8548 15.1506C17.6782 14.052 18.2268 12.7722 18.4547 11.4183C18.6825 10.0644 18.5831 8.67561 18.1647 7.36796C17.7463 6.0603 17.0211 4.87175 16.0496 3.90159C15.0781 2.93143 13.8885 2.20783 12.5803 1.79123C11.2721 1.37463 9.88315 1.27714 8.52955 1.50688C7.17333 1.7322 5.89105 2.27991 4.79055 3.10392C3.69006 3.92794 2.80353 5.00418 2.20552 6.24212C1.60752 7.48005 1.31554 8.84349 1.35412 10.2178C1.39271 11.592 1.76074 12.9369 2.42726 14.1394C2.53206 14.3292 2.59834 14.5378 2.62229 14.7534C2.64623 14.9689 2.62737 15.187 2.56679 15.3952L1.70168 18.2696L4.57608 17.4045C4.72663 17.357 4.88335 17.3319 5.0412 17.33Z" fill="#999999"/>
</g>
<defs>
<clipPath id="clip0_8045_876">
<rect width="20" height="20" fill="white"/>
</clipPath>
</defs>
</svg>
