<svg width="14" height="14" viewBox="0 0 14 14" fill="none" xmlns="http://www.w3.org/2000/svg">
<g clip-path="url(#clip0_8006_7086)">
<path fill-rule="evenodd" clip-rule="evenodd" d="M7.41239 9.16239C7.303 9.27175 7.15465 9.33318 6.99998 9.33318C6.8453 9.33318 6.69695 9.27175 6.58756 9.16239L3.28764 5.86248C3.23193 5.80867 3.18749 5.7443 3.15692 5.67313C3.12635 5.60196 3.11025 5.52541 3.10958 5.44796C3.10891 5.37051 3.12367 5.29369 3.153 5.222C3.18233 5.15031 3.22564 5.08518 3.28041 5.03041C3.33518 4.97564 3.40031 4.93233 3.472 4.903C3.54369 4.87367 3.62051 4.85891 3.69796 4.85958C3.77541 4.86025 3.85196 4.87635 3.92313 4.90692C3.9943 4.93749 4.05867 4.98193 4.11248 5.03764L6.99998 7.92514L9.88748 5.03764C9.99749 4.93138 10.1448 4.87259 10.2978 4.87392C10.4507 4.87525 10.597 4.93659 10.7052 5.04475C10.8134 5.1529 10.8747 5.29921 10.876 5.45216C10.8774 5.60511 10.8186 5.75246 10.7123 5.86248L7.41239 9.16239Z" fill="#E9E9E9"/>
</g>
<defs>
<clipPath id="clip0_8006_7086">
<rect width="14" height="14" fill="white"/>
</clipPath>
</defs>
</svg>
