<svg width="24" height="24" viewBox="0 0 24 24" fill="none" xmlns="http://www.w3.org/2000/svg">
<path d="M12 11C13.6569 11 15 9.65685 15 8C15 6.34315 13.6569 5 12 5C10.3431 5 9 6.34315 9 8C9 9.65685 10.3431 11 12 11Z" fill="#212121"/>
<path d="M4.26137 8.01149C4.39174 7.7822 4.56617 7.58096 4.77462 7.41935C4.98308 7.25775 5.22144 7.13898 5.47599 7.06987C5.73053 7.00076 5.99623 6.98269 6.25779 7.01668C6.51935 7.05068 6.77161 7.13608 7.00003 7.26796C7.22845 7.39985 7.42853 7.57561 7.58874 7.78513C7.74896 7.99465 7.86615 8.2338 7.93357 8.4888C8.00099 8.7438 8.0173 9.00961 7.98157 9.27094C7.94584 9.53227 7.85877 9.78395 7.72537 10.0115C7.45827 10.4671 7.0218 10.7986 6.51121 10.9336C6.00062 11.0686 5.45736 10.9961 4.99998 10.732C4.54261 10.468 4.20825 10.0337 4.06987 9.52402C3.9315 9.01433 4.00034 8.47061 4.26137 8.01149Z" fill="#212121"/>
<path d="M16.2614 8.01149C16.3917 7.7822 16.5662 7.58096 16.7746 7.41935C16.9831 7.25775 17.2214 7.13898 17.476 7.06987C17.7305 7.00076 17.9962 6.98269 18.2578 7.01668C18.5194 7.05068 18.7716 7.13608 19 7.26796C19.2284 7.39985 19.4285 7.57561 19.5887 7.78513C19.749 7.99465 19.8662 8.2338 19.9336 8.4888C20.001 8.7438 20.0173 9.00961 19.9816 9.27094C19.9458 9.53227 19.8588 9.78395 19.7254 10.0115C19.4583 10.4671 19.0218 10.7986 18.5112 10.9336C18.0006 11.0686 17.4574 10.9961 17 10.732C16.5426 10.468 16.2082 10.0337 16.0699 9.52402C15.9315 9.01433 16.0003 8.47061 16.2614 8.01149Z" fill="#212121"/>
<path d="M12 14C15.572 14 16.592 16.551 16.883 18.009C16.992 18.55 16.553 19 16 19H8.00001C7.44801 19 7.00801 18.55 7.11701 18.009C7.40801 16.55 8.42801 14 12 14Z" fill="#212121"/>
<path d="M16.8997 14C20.4717 14 21.4917 16.551 21.7827 18.009C21.8917 18.55 21.4527 19 20.8997 19H12.8997C12.3477 19 11.9077 18.55 12.0167 18.009C12.3077 16.55 13.3277 14 16.8997 14Z" fill="#212121"/>
<path d="M5.89969 14C9.47169 14 10.4917 16.551 10.7827 18.009C10.8917 18.55 10.4527 19 9.89969 19H1.89969C1.34769 19 0.907686 18.55 1.01669 18.009C1.30769 16.55 2.32769 14 5.89969 14Z" fill="#212121"/>
</svg>
