<svg width="32" height="32" viewBox="0 0 32 32" fill="none" xmlns="http://www.w3.org/2000/svg">
<path d="M16.6675 12.3725C16.6675 12.3725 17.935 11.81 19.06 11.5975C20.185 11.3875 21.1025 11.4225 21.1025 11.4225C21.1025 11.4225 22.0875 9.98001 22.2275 9.20501C22.3675 8.43001 22.385 7.71001 22.4025 7.58501C22.445 7.28501 24.445 7.26751 24.865 8.46501C25.2875 9.66251 24.76 11.105 24.4075 11.6325C24.055 12.16 23.6675 12.5475 23.6675 12.5475C23.6675 12.5475 25.3925 14.1675 25.78 15.9625C26.1675 17.7575 26.0625 20.3975 26.0625 20.3975C26.0625 20.3975 25.9575 22.4025 24.9725 22.545C23.9875 22.685 22.79 21.7875 22.615 21.5775C22.44 21.3675 22.1 20.775 21.525 20.9625C20.875 21.1725 20.7075 21.9225 20.575 22.5825C20.41 23.3925 20.165 25.4575 20.165 25.4575C20.165 25.4575 18.9925 25.9275 18.2875 25.82C17.5825 25.715 16.7025 24.87 16.7025 24.87C16.7025 24.87 16.7725 23.815 16.42 23.6025C16.0675 23.39 15.715 23.99 15.715 23.99L14.3075 25.5375L12.3725 23.9525C12.3725 23.9525 12.2325 23.2475 12.02 22.8975C11.81 22.545 11.3875 21.7725 11.245 21.2425C10.895 19.94 11 17.4425 11 17.4425L8.8525 6.95501L9.38 6.46251C9.38 6.46251 9.8725 3.92751 10.6475 2.83751C11.4225 1.74751 12.055 1.46501 12.4775 1.25251C12.9 1.04001 14.2025 0.900009 14.2025 1.25251C14.2025 1.60501 13.605 2.06251 13.2525 2.62501C12.9 3.18751 12.5125 3.99751 12.3025 4.70251C12.0925 5.40751 11.8575 6.25001 11.8575 6.25001L12.62 6.42501C12.62 6.42501 13.0425 5.40501 13.43 4.87751C13.8175 4.35001 14.3625 3.62751 15.0325 3.11751C15.6 2.68501 16.3875 2.23751 17.2675 2.23751C18.1475 2.23751 19.31 2.48501 19.2025 3.13501C19.145 3.49001 18.48 3.32751 17.8125 3.76751C17 4.30251 16.1225 5.19251 15.4725 6.68751C14.8225 8.18251 14.5925 8.83501 14.5925 8.83501C14.5925 8.83501 16.3 10.4375 16.475 10.9825C16.65 11.5275 16.6675 12.3725 16.6675 12.3725Z" fill="#4DB131"/>
<path d="M8.925 17.535C8.925 17.535 10.3575 18.44 10.99 18.4725C11.9625 18.525 13.395 17.95 14.2925 16.965C15.19 15.98 15.93 14.545 15.8 12.795C15.6875 11.2875 15.1725 10.735 15.1725 10.735C15.1725 10.735 16.07 11.615 17.3725 11.51C18.675 11.405 19.73 10.6125 20.135 9.82C20.455 9.195 20.75 8.43 20.5575 8.29C20.365 8.15 19.7175 8.29 19.7175 8.29L17.265 9.3975L13.06 9.68L8.66 15.9625L8.925 17.535ZM5.545 7.54C5.37 7.66 5.6325 8.455 6.25 8.93C6.8675 9.405 7.745 9.545 7.745 9.545L9.0475 7.7675C9.0475 7.7675 5.88 7.31 5.545 7.54Z" fill="#ADDBA0"/>
<path d="M16.69 24.4925C16.69 24.4925 17.405 25.15 18.4075 25.0625C19.41 24.975 20.315 24.33 20.315 24.33C20.315 24.33 20.115 26.3825 20.0975 26.77C20.08 27.1575 20.045 28.295 20.045 28.295C20.045 28.295 18.7775 29.655 18.0925 29.5325C17.405 29.41 16.45 28.2075 16.4675 27.9775C16.485 27.7475 16.6325 26.7175 16.6675 26.1875C16.7025 25.66 16.69 24.4925 16.69 24.4925ZM14.08 24.18C15.1525 24.105 15.9625 23.6925 15.9625 23.6925C15.9625 23.6925 16.02 25.195 15.9975 25.5925C15.9575 26.2875 15.9025 27.1175 15.8325 27.33C15.7625 27.54 13.48 27.84 13.48 27.84C13.48 27.84 12.3725 26.855 12.3725 26.8025C12.3725 26.75 12.43 26 12.455 25.4425C12.4725 25.0375 12.35 23.7775 12.35 23.7775C12.35 23.7775 13.06 24.2525 14.08 24.18ZM22.51 21.4425C22.51 21.4425 23.2675 21.525 23.7775 21.4725C24.2875 21.42 25.3425 21.0325 25.6075 20.8575C25.8725 20.6825 26.065 20.4 26.065 20.4C26.065 20.4 25.96 22.5825 25.9775 23.005C25.995 23.4275 25.995 24.43 25.995 24.43C25.995 24.43 25.1675 25.7675 24.2875 25.855C23.4075 25.9425 22.51 24.3175 22.51 24.3175C22.51 24.3175 22.64 23.46 22.64 22.9325C22.6375 22.405 22.51 21.4425 22.51 21.4425Z" fill="#ADDBA0"/>
<path d="M18.0625 28.5975C18.9925 28.68 20.0625 28.175 20.0625 28.175C20.0625 28.175 20.15 29.7775 19.905 30.24C19.695 30.64 19.0475 31.0725 17.46 30.815C16.43 30.6475 16.305 30.0375 16.245 29.6525C16.1875 29.265 16.455 27.9275 16.455 27.9275C16.455 27.9275 16.885 28.4925 18.0625 28.5975ZM24.27 24.845C25.01 24.82 25.995 24.4275 25.995 24.4275C25.995 24.4275 26.0475 25.9925 25.45 26.54C24.7625 27.1675 23.1325 26.975 22.675 26.4625C22.2175 25.9525 22.51 24.2675 22.51 24.2675C22.51 24.2675 23.265 24.88 24.27 24.845ZM13.9925 27.1725C14.8575 27.2075 15.905 26.8975 15.905 26.8975C15.905 26.8975 16.035 28.7875 15.155 29.115C14.22 29.465 12.9975 29.385 12.515 28.775C12.1675 28.335 12.3575 26.7325 12.3575 26.7325C12.3575 26.7325 13.095 27.1375 13.9925 27.1725Z" fill="#4DB131"/>
<path d="M9.9275 8.22C10.1 8.3225 10.455 7.2525 12.725 7.27C15.225 7.2875 16.5425 8.5025 16.7375 8.52C16.93 8.5375 18.2675 8.52 18.69 8.485C19.1125 8.45 19.8525 8.115 19.835 8.3625C19.8175 8.61 19.535 9.965 18.2875 10.315C17.0375 10.6675 14.9275 9.91 14.5225 9.875C14.1175 9.84 13.765 9.875 13.8 10.49C13.835 11.105 9.2075 13.8875 9.2075 13.8875C9.2075 13.8875 5.8225 12.31 5.77 12.115C5.7175 11.9225 6.0975 11.41 6.41 10.93C6.805 10.32 7.0075 9.645 7.22 9.2925C7.43 8.94 7.765 8.4825 7.765 8.4825C7.765 8.4825 7.1075 8.535 6.675 8.3475C6.3775 8.22 5.6375 7.725 5.6025 7.55C5.5675 7.375 6.43 7.5675 7.1325 7.4975C7.8375 7.4275 9.155 6.6875 9.155 6.6875C9.155 6.6875 9.595 7.04 9.7175 7.375C9.84 7.71 9.84 8.1675 9.9275 8.22Z" fill="#ADDBA0"/>
<path d="M6.8825 16.545C6.8825 16.545 6.68 17.32 6.8 18.165C6.895 18.8275 7.3925 19.4675 7.48 19.695C7.5675 19.9225 7.7275 20.4525 7.71 20.6275C7.6925 20.8025 7.9325 20.845 7.985 20.715C8.05 20.5575 7.98 20.3375 8.16 20.38C8.36 20.4275 8.16 20.815 8.4175 20.825C8.6875 20.8375 8.505 20.4725 8.7 20.4725C8.905 20.4725 8.7225 20.89 9.0175 20.8825C9.2875 20.8775 9.035 20.5125 9.2925 20.52C9.5025 20.525 9.3275 20.9075 9.62 20.865C9.785 20.8425 9.5925 20.45 9.8075 20.4025C9.995 20.3625 9.895 20.755 10.1125 20.6725C10.2525 20.62 10.3 20.255 10.2475 19.8325C10.195 19.41 10.0375 18.8125 9.9475 18.33C9.86 17.85 9.76 17.3375 9.755 16.88C9.75 16.4225 9.7425 15.8875 9.7425 15.8875L6.8825 16.545Z" fill="#4DB131"/>
<path d="M10.11 12.5025C10.2475 12.515 10.7675 11.94 11.0025 11.53C11.2375 11.12 11.86 10.215 12.775 10.11C13.715 10.0025 14.265 10.4975 14.4875 11.2725C14.6925 11.9875 14.5 12.81 13.56 13.255C12.655 13.685 12.305 13.5125 11.5425 13.735C11.1375 13.8525 10.51 14.205 10.475 14.25C10.44 14.2975 10.6825 15.9825 9.35 16.7125C8.235 17.3225 6.5225 17.0875 5.6425 15.985C4.6775 14.775 4.8575 12.9575 5.5725 12.0775C6.28 11.2075 7.1325 10.89 8.3875 11.2575C9.7925 11.67 9.98 12.49 10.11 12.5025Z" fill="#FFF3DD"/>
<path d="M13.805 11.8926C13.805 12.4076 13.4775 12.8776 12.8325 12.8901C12.28 12.9001 12.065 12.4426 12.0475 11.9276C12.025 11.2701 12.495 10.9401 12.9625 10.9301C13.57 10.9176 13.805 11.3776 13.805 11.8926ZM6.355 13.1926C6.355 13.1926 7.27 12.6901 7.385 12.6301C7.5 12.5701 7.7975 12.4626 7.9575 12.7101C8.115 12.9576 7.86 13.1776 7.6575 13.2651C7.455 13.3526 6.6025 13.8726 6.6025 13.8726C6.6025 13.8726 6.505 14.5151 6.5925 14.5851C6.8275 14.7726 7.1825 14.8751 7.4725 14.8501C7.7625 14.8226 7.9925 14.7001 8.08 14.6826C8.1675 14.6651 8.415 14.6551 8.4675 14.8326C8.52 15.0076 8.395 15.2126 8.1775 15.3176C7.9175 15.4401 7.6575 15.5701 7.2175 15.4926C6.875 15.4326 6.6025 15.3526 6.4425 15.2451C6.285 15.1401 6.1175 14.9451 6.1175 14.9451C6.1175 14.9451 5.88 15.2351 5.66 15.2276C5.44 15.2176 5.1575 15.0776 5.15 15.0526C5.14 15.0251 4.85 14.7976 4.9825 14.5501C5.115 14.3026 5.4125 14.6376 5.5975 14.6651C5.7825 14.6926 5.8975 14.5676 5.915 14.5076C5.9325 14.4451 5.925 13.7601 5.925 13.7601C5.925 13.7601 5.53 13.2501 5.44 13.1626C5.3525 13.0751 5.1225 12.7851 5.36 12.6076C5.5975 12.4301 5.755 12.6076 5.8175 12.6601C5.88 12.7126 6.355 13.1926 6.355 13.1926Z" fill="#2E2E2E"/>
</svg>
