<svg width="24" height="24" viewBox="0 0 24 24" fill="none" xmlns="http://www.w3.org/2000/svg">
<path d="M11.47 4.84111C11.6106 4.70066 11.8013 4.62177 12 4.62177C12.1988 4.62177 12.3894 4.70066 12.53 4.84111L21.22 13.5311C21.2892 13.6027 21.372 13.6598 21.4635 13.6991C21.5551 13.7383 21.6535 13.759 21.7531 13.7598C21.8526 13.7606 21.9514 13.7416 22.0435 13.7038C22.1357 13.6661 22.2194 13.6104 22.2898 13.5399C22.3602 13.4694 22.4158 13.3857 22.4535 13.2935C22.4912 13.2013 22.5101 13.1025 22.5092 13.003C22.5083 12.9034 22.4875 12.805 22.4482 12.7135C22.4088 12.622 22.3517 12.5393 22.28 12.4701L13.591 3.78011C13.3821 3.57118 13.134 3.40544 12.861 3.29237C12.5881 3.17929 12.2955 3.12109 12 3.12109C11.7045 3.12109 11.4119 3.17929 11.139 3.29237C10.866 3.40544 10.6179 3.57118 10.409 3.78011L1.719 12.4701C1.6474 12.5393 1.59031 12.6221 1.55104 12.7136C1.51178 12.8052 1.49114 12.9036 1.49032 13.0032C1.4895 13.1028 1.50853 13.2015 1.54628 13.2937C1.58403 13.3858 1.63976 13.4695 1.71022 13.5399C1.78067 13.6103 1.86443 13.6659 1.95662 13.7036C2.04881 13.7413 2.14758 13.7602 2.24716 13.7593C2.34675 13.7584 2.44515 13.7377 2.53664 13.6983C2.62812 13.659 2.71085 13.6018 2.78 13.5301L11.47 4.84111Z" fill="#212121"/>
<path d="M12 6.43188L20.159 14.5909C20.189 14.6209 20.219 14.6489 20.25 14.6769V20.8749C20.25 21.9099 19.41 22.7499 18.375 22.7499H15C14.8011 22.7499 14.6103 22.6709 14.4697 22.5302C14.329 22.3896 14.25 22.1988 14.25 21.9999V17.4999C14.25 17.301 14.171 17.1102 14.0303 16.9696C13.8897 16.8289 13.6989 16.7499 13.5 16.7499H10.5C10.3011 16.7499 10.1103 16.8289 9.96967 16.9696C9.82902 17.1102 9.75 17.301 9.75 17.4999V21.9999C9.75 22.1988 9.67098 22.3896 9.53033 22.5302C9.38968 22.6709 9.19891 22.7499 9 22.7499H5.625C5.12772 22.7499 4.65081 22.5523 4.29917 22.2007C3.94754 21.8491 3.75 21.3722 3.75 20.8749V14.6769C3.78111 14.6491 3.81146 14.6204 3.841 14.5909L12 6.43188Z" fill="#212121"/>
</svg>
