<svg width="24" height="24" viewBox="0 0 24 24" fill="none" xmlns="http://www.w3.org/2000/svg">
<path d="M17.8571 12C17.8571 13.1835 18.8165 14.1429 20 14.1429C21.1835 14.1429 22.1429 13.1835 22.1429 12C22.1429 10.8166 21.1835 9.85718 20 9.85718C18.8165 9.85718 17.8571 10.8166 17.8571 12Z" fill="white"/>
<path d="M9.99999 12C9.99999 13.1835 10.9594 14.1429 12.1428 14.1429C13.3263 14.1429 14.2857 13.1835 14.2857 12C14.2857 10.8166 13.3263 9.85718 12.1428 9.85718C10.9594 9.85718 9.99999 10.8166 9.99999 12Z" fill="white"/>
<path d="M2.14284 12C2.14284 13.1835 3.10223 14.1429 4.2857 14.1429C5.46917 14.1429 6.42856 13.1835 6.42856 12C6.42856 10.8166 5.46917 9.85718 4.2857 9.85718C3.10223 9.85718 2.14284 10.8166 2.14284 12Z" fill="white"/>
</svg>
