<svg width="24" height="24" viewBox="0 0 24 24" fill="none" xmlns="http://www.w3.org/2000/svg">
<g clip-path="url(#clip0_8579_736)">
<path d="M12 11C13.6569 11 15 9.65685 15 8C15 6.34315 13.6569 5 12 5C10.3431 5 9 6.34315 9 8C9 9.65685 10.3431 11 12 11Z" stroke="white" stroke-width="1.3" stroke-linecap="round"/>
<path d="M15.268 8.00001C15.3984 7.77072 15.5728 7.56948 15.7813 7.40788C15.9897 7.24628 16.2281 7.1275 16.4826 7.05839C16.7372 6.98929 17.0029 6.97121 17.2644 7.00521C17.526 7.03921 17.7782 7.1246 18.0067 7.25649C18.2351 7.38837 18.4352 7.56413 18.5954 7.77366C18.7556 7.98318 18.8728 8.22232 18.9402 8.47732C19.0076 8.73232 19.0239 8.99814 18.9882 9.25946C18.9525 9.52079 18.8654 9.77247 18.732 10C18.4649 10.4556 18.0284 10.7871 17.5178 10.9221C17.0073 11.0571 16.464 10.9846 16.0066 10.7206C15.5492 10.4565 15.2149 10.0222 15.0765 9.51254C14.9381 9.00286 15.007 8.45913 15.268 8.00001ZM5.26801 8.00001C5.39837 7.77072 5.57281 7.56948 5.78126 7.40788C5.98972 7.24628 6.22808 7.1275 6.48262 7.05839C6.73717 6.98929 7.00287 6.97121 7.26443 7.00521C7.52599 7.03921 7.77824 7.1246 8.00666 7.25649C8.23509 7.38837 8.43516 7.56413 8.59538 7.77366C8.7556 7.98318 8.87279 8.22232 8.94021 8.47732C9.00762 8.73232 9.02394 8.99814 8.98821 9.25946C8.95247 9.52079 8.8654 9.77247 8.73201 10C8.46491 10.4556 8.02844 10.7871 7.51785 10.9221C7.00725 11.0571 6.464 10.9846 6.00662 10.7206C5.54925 10.4565 5.21489 10.0222 5.07651 9.51254C4.93814 9.00286 5.00698 8.45913 5.26801 8.00001Z" stroke="white" stroke-width="1.3"/>
<path d="M12 14C15.572 14 16.592 16.551 16.883 18.009C16.992 18.55 16.553 19 16 19H8.00001C7.44801 19 7.00801 18.55 7.11701 18.009C7.40801 16.55 8.42801 14 12 14Z" stroke="white" stroke-width="1.3" stroke-linecap="round"/>
<path d="M16.8997 14C20.4717 14 21.4917 16.551 21.7827 18.009C21.8917 18.55 21.4527 19 20.8997 19H12.8997C12.3477 19 11.9077 18.55 12.0167 18.009C12.3077 16.55 13.3277 14 16.8997 14Z" stroke="white" stroke-width="1.3" stroke-linecap="round"/>
<path d="M5.89969 14C9.47169 14 10.4917 16.551 10.7827 18.009C10.8917 18.55 10.4527 19 9.89969 19H1.89969C1.34769 19 0.907686 18.55 1.01669 18.009C1.30769 16.55 2.32769 14 5.89969 14Z" stroke="white" stroke-width="1.3" stroke-linecap="round"/>
</g>
<defs>
<clipPath id="clip0_8579_736">
<rect width="24" height="24" fill="white"/>
</clipPath>
</defs>
</svg>
