<svg width="14" height="14" viewBox="0 0 14 14" fill="none" xmlns="http://www.w3.org/2000/svg">
<path fill-rule="evenodd" clip-rule="evenodd" d="M4.20516 9.10896C6.7685 11.6723 9.14383 11.953 9.84116 11.979C10.6838 12.0096 11.5438 11.3216 11.9158 10.617C11.3225 9.92096 10.5498 9.38096 9.70383 8.79563C9.2045 9.2943 8.58916 10.221 7.76983 9.88896C7.30383 9.70163 6.15316 9.17163 5.14783 8.16563C4.1425 7.15963 3.61249 6.00963 3.42383 5.5443C3.09183 4.72363 4.02116 4.10696 4.5205 3.60763C3.93516 2.74763 3.40449 1.95496 2.70983 1.39163C1.99516 1.76496 1.30316 2.6183 1.33449 3.4723C1.36049 4.16963 1.64116 6.54496 4.20516 9.10896ZM9.79183 13.3116C8.83183 13.2763 6.11116 12.9003 3.26183 10.0516C0.413162 7.2023 0.037828 4.4823 0.001828 3.52163C-0.0515053 2.05763 1.06983 0.635629 2.36516 0.0802961C2.52115 0.0129407 2.69196 -0.0127036 2.86085 0.00587973C3.02973 0.0244631 3.19089 0.0866354 3.32849 0.186296C4.4005 0.968296 5.13983 2.15296 5.77516 3.08096C5.90733 3.27393 5.96788 3.50703 5.94633 3.73993C5.92478 3.97282 5.82249 4.19085 5.65716 4.3563L4.75316 5.26096C4.96316 5.7243 5.39049 6.52296 6.0905 7.22296C6.79049 7.92296 7.58916 8.3503 8.05316 8.5603L8.9565 7.6563C9.12237 7.49027 9.34136 7.38787 9.57512 7.36703C9.80888 7.34619 10.0425 7.40823 10.2352 7.5423C11.1818 8.1983 12.2938 8.92696 13.1045 9.96496C13.2122 10.1036 13.2808 10.2686 13.303 10.4427C13.3251 10.6169 13.3001 10.7938 13.2305 10.955C12.6725 12.257 11.2605 13.3656 9.79183 13.3116Z" fill="#BABABA"/>
</svg>
