<svg width="24" height="24" viewBox="0 0 24 24" fill="none" xmlns="http://www.w3.org/2000/svg">
<path fill-rule="evenodd" clip-rule="evenodd" d="M12 2C13.3132 1.99999 14.6136 2.25865 15.8269 2.76119C17.0401 3.26373 18.1425 4.00033 19.0711 4.92891C19.9997 5.8575 20.7363 6.95989 21.2388 8.17315C21.7414 9.3864 22 10.6868 22 12C22 17.5228 17.5229 22 12 22C6.4772 22 2.00003 17.5228 2.00003 12C2.00003 6.47717 6.4772 2 12 2ZM13 13H11C8.52433 13 6.39887 14.4994 5.48214 16.6398C6.93264 18.6737 9.31145 20 12 20C14.6886 20 17.0674 18.6737 18.5179 16.6396C17.6012 14.4994 15.4757 13 13 13ZM12 5C10.3432 5 9.00002 6.34316 9.00002 8C9.00002 9.65684 10.3432 11 12 11C13.6569 11 15 9.65684 15 8C15 6.34316 13.6569 5 12 5Z" fill="#212121"/>
</svg>
