<svg width="18" height="16" viewBox="0 0 18 16" fill="none" xmlns="http://www.w3.org/2000/svg">
<path d="M6.75006 2.75C6.75006 2.21957 6.96078 1.71086 7.33585 1.33579C7.71092 0.960714 8.21963 0.75 8.75006 0.75C9.28049 0.75 9.7892 0.960714 10.1643 1.33579C10.5393 1.71086 10.7501 2.21957 10.7501 2.75C11.8985 3.29303 12.8775 4.13833 13.5821 5.1953C14.2868 6.25227 14.6905 7.48107 14.7501 8.75V11.75C14.8253 12.3717 15.0455 12.9671 15.3929 13.4881C15.7403 14.0092 16.2051 14.4414 16.7501 14.75H0.750061C1.295 14.4414 1.75987 14.0092 2.10725 13.4881C2.45463 12.9671 2.67481 12.3717 2.75006 11.75V8.75C2.80962 7.48107 3.21336 6.25227 3.91801 5.1953C4.62266 4.13833 5.60165 3.29303 6.75006 2.75" stroke="#BABABA" stroke-width="1.5" stroke-linecap="round" stroke-linejoin="round"/>
</svg>
